<svg width="209" height="61" viewBox="0 0 209 61" fill="none" xmlns="http://www.w3.org/2000/svg">
<path d="M12.4453 47.4336L20.8477 59H15.8379L8.08594 47.8906H7.34766V59H3.25195V31.8594H8.05078C11.6367 31.8594 14.2266 32.5332 15.8203 33.8809C17.5781 35.3809 18.457 37.3613 18.457 39.8223C18.457 41.7441 17.9062 43.3965 16.8047 44.7793C15.7031 46.1621 14.25 47.0469 12.4453 47.4336ZM7.34766 44.3223H8.64844C12.5273 44.3223 14.4668 42.8398 14.4668 39.875C14.4668 37.0977 12.5801 35.709 8.80664 35.709H7.34766V44.3223ZM21.877 45.3066C21.877 41.4863 23.2774 38.2051 26.0782 35.4629C28.8673 32.7207 32.2188 31.3496 36.1329 31.3496C40.0001 31.3496 43.3165 32.7324 46.0821 35.498C48.8595 38.2637 50.2481 41.5859 50.2481 45.4648C50.2481 49.3672 48.8536 52.6777 46.0645 55.3965C43.2638 58.127 39.8829 59.4922 35.922 59.4922C32.418 59.4922 29.2716 58.2793 26.4825 55.8535C23.4122 53.1699 21.877 49.6543 21.877 45.3066ZM26.0079 45.3594C26.0079 48.3594 27.0157 50.8262 29.0313 52.7598C31.0352 54.6934 33.3497 55.6602 35.9747 55.6602C38.8223 55.6602 41.2247 54.6758 43.1817 52.707C45.1388 50.7148 46.1173 48.2891 46.1173 45.4297C46.1173 42.5352 45.1505 40.1094 43.2169 38.1523C41.295 36.1836 38.9161 35.1992 36.0802 35.1992C33.2559 35.1992 30.8712 36.1836 28.9259 38.1523C26.9805 40.0977 26.0079 42.5 26.0079 45.3594ZM68.8908 52.4082H57.2716L54.2482 59H49.8361L63.2658 30.1543L76.2209 59H71.7384L68.8908 52.4082ZM67.2209 48.5586L63.1955 39.3301L58.9767 48.5586H67.2209ZM78.551 59V31.8594H84.2463C86.9768 31.8594 89.133 32.1289 90.7151 32.668C92.4143 33.1953 93.9553 34.0918 95.3381 35.3574C98.1389 37.9121 99.5393 41.2695 99.5393 45.4297C99.5393 49.6016 98.0803 52.9766 95.1623 55.5547C93.6975 56.8438 92.1623 57.7402 90.5569 58.2441C89.0569 58.748 86.9299 59 84.176 59H78.551ZM82.6467 55.1504H84.4924C86.3323 55.1504 87.8616 54.957 89.0803 54.5703C90.2991 54.1602 91.4006 53.5098 92.385 52.6191C94.4006 50.7793 95.4084 48.3828 95.4084 45.4297C95.4084 42.4531 94.4123 40.0391 92.4202 38.1875C90.6272 36.5352 87.9846 35.709 84.4924 35.709H82.6467V55.1504ZM102.678 59L108.391 29.8203L117.707 50.9141L127.358 29.8203L132.491 59H128.289L125.67 42.6172L117.637 60.248L109.832 42.5996L106.914 59H102.678ZM153.12 52.4082H141.5L138.477 59H134.065L147.495 30.1543L160.45 59H155.967L153.12 52.4082ZM151.45 48.5586L147.424 39.3301L143.205 48.5586H151.45ZM166.875 47.9785V59H162.78V31.8594H167.42C169.694 31.8594 171.411 32.0176 172.571 32.334C173.743 32.6504 174.774 33.248 175.665 34.127C177.223 35.6504 178.002 37.5723 178.002 39.8926C178.002 42.377 177.17 44.3457 175.506 45.7988C173.842 47.252 171.598 47.9785 168.774 47.9785H166.875ZM166.875 44.1816H168.405C172.166 44.1816 174.047 42.7344 174.047 39.8398C174.047 37.0391 172.108 35.6387 168.229 35.6387H166.875V44.1816Z" fill="#424241"/>
<path d="M96.6172 18.529L123.571 9.97363L118.119 39.5328L96.6172 18.529Z" fill="#ECD481" stroke="#2F2F2F" stroke-width="0.7"/>
<path d="M147.501 30.6998C151.477 30.6998 154.701 27.4763 154.701 23.4998C154.701 19.5234 151.477 16.2998 147.501 16.2998C143.524 16.2998 140.301 19.5234 140.301 23.4998C140.301 27.4763 143.524 30.6998 147.501 30.6998Z" fill="white" stroke="#2F2F2F" stroke-width="0.6"/>
<path d="M140.203 21.4568C140.455 21.3446 140.569 21.0491 140.457 20.7968L138.629 16.6849C138.516 16.4326 138.221 16.319 137.969 16.4312C137.716 16.5433 137.603 16.8388 137.715 17.0912L139.34 20.7462L135.685 22.3713C135.433 22.4835 135.319 22.779 135.431 23.0313C135.543 23.2836 135.839 23.3972 136.091 23.285L140.203 21.4568ZM123.158 14.5253L122.979 14.992L139.821 21.4666L140 20.9999L140.179 20.5332L123.338 14.0586L123.158 14.5253Z" fill="#2F2F2F"/>
<path d="M208.768 36H182.922V48.9229H208.768V36Z" fill="#46675D"/>
<path d="M195.846 48.9229H170V59.9996H195.846V48.9229Z" fill="#46675D"/>
</svg>
