<svg width="20" height="20" viewBox="0 0 20 20" fill="none" xmlns="http://www.w3.org/2000/svg">
<g clip-path="url(#clip0_3154_932)">
<path d="M2.2207 1.8623C2.02155 1.8623 1.86426 2.02347 1.86426 2.21875V8.14648C1.86426 8.34564 2.02543 8.50293 2.2207 8.50293H8.14844C8.34759 8.50293 8.50488 8.34176 8.50488 8.14648V1.8623H2.2207ZM9.63281 8.64453L8.64648 9.63086H1.72266L0.736328 8.64453V1.7207L1.72266 0.734375H8.64648L9.63281 1.7207V8.64453Z" fill="#46675D" stroke="#46675D" stroke-width="0.2"/>
<path d="M11.8535 1.8623C11.6544 1.8623 11.4971 2.02347 11.4971 2.21875V8.14648C11.4971 8.34564 11.6582 8.50293 11.8535 8.50293H17.7812C17.9804 8.50293 18.1377 8.34176 18.1377 8.14648V1.8623H11.8535ZM19.2656 8.64453L18.2793 9.63086H11.3555L10.3691 8.64453V1.7207L11.3555 0.734375H18.2793L19.2656 1.7207V8.64453Z" fill="#46675D" stroke="#46675D" stroke-width="0.2"/>
<path d="M2.2207 11.499C2.0216 11.499 1.86434 11.6593 1.86426 11.8545V17.7832C1.86438 17.9822 2.0255 18.1387 2.2207 18.1387H8.14844C8.34751 18.1387 8.50476 17.9784 8.50488 17.7832V11.499H2.2207ZM9.63281 18.2754L8.64648 19.2617H1.72266L0.736328 18.2754V11.3516L1.72266 10.3652H8.64648L9.63281 11.3516V18.2754Z" fill="#46675D" stroke="#46675D" stroke-width="0.2"/>
<path d="M11.4005 18.7004L10.9336 18.2389V11.3985L11.4005 10.9316H18.2354L18.7023 11.3985V18.2389L18.2354 18.7004H11.4005Z" fill="#BEDCE4"/>
<mask id="path-5-inside-1_3154_932" fill="white">
<path d="M18.2375 11.3986V18.239H11.3971V11.3986H18.2375ZM18.2375 10.4648H11.3971L10.4688 11.3932V18.2336L11.3971 19.1619H18.2375L19.1658 18.2336V11.3932L18.2375 10.4648Z"/>
</mask>
<path d="M18.2375 11.3986V18.239H11.3971V11.3986H18.2375ZM18.2375 10.4648H11.3971L10.4688 11.3932V18.2336L11.3971 19.1619H18.2375L19.1658 18.2336V11.3932L18.2375 10.4648Z" fill="#BEDCE4"/>
<path d="M18.2375 11.3986H19.2375V10.3986H18.2375V11.3986ZM18.2375 18.239V19.239H19.2375V18.239H18.2375ZM11.3971 18.239H10.3971V19.239H11.3971V18.239ZM11.3971 11.3986V10.3986H10.3971V11.3986H11.3971ZM18.2375 10.4648L18.9446 9.75774L18.6517 9.46484H18.2375V10.4648ZM11.3971 10.4648V9.46484H10.9829L10.69 9.75774L11.3971 10.4648ZM10.4688 11.3932L9.76164 10.6861L9.46875 10.979V11.3932H10.4688ZM10.4688 18.2336H9.46875V18.6478L9.76164 18.9407L10.4688 18.2336ZM11.3971 19.1619L10.69 19.869L10.9829 20.1619H11.3971V19.1619ZM18.2375 19.1619V20.1619H18.6517L18.9446 19.869L18.2375 19.1619ZM19.1658 18.2336L19.8729 18.9407L20.1658 18.6478V18.2336H19.1658ZM19.1658 11.3932H20.1658V10.979L19.8729 10.6861L19.1658 11.3932ZM18.2375 11.3986H17.2375V18.239H18.2375H19.2375V11.3986H18.2375ZM18.2375 18.239V17.239H11.3971V18.239V19.239H18.2375V18.239ZM11.3971 18.239H12.3971V11.3986H11.3971H10.3971V18.239H11.3971ZM11.3971 11.3986V12.3986H18.2375V11.3986V10.3986H11.3971V11.3986ZM18.2375 10.4648V9.46484H11.3971V10.4648V11.4648H18.2375V10.4648ZM11.3971 10.4648L10.69 9.75774L9.76164 10.6861L10.4688 11.3932L11.1759 12.1003L12.1042 11.172L11.3971 10.4648ZM10.4688 11.3932H9.46875V18.2336H10.4688H11.4688V11.3932H10.4688ZM10.4688 18.2336L9.76164 18.9407L10.69 19.869L11.3971 19.1619L12.1042 18.4548L11.1759 17.5265L10.4688 18.2336ZM11.3971 19.1619V20.1619H18.2375V19.1619V18.1619H11.3971V19.1619ZM18.2375 19.1619L18.9446 19.869L19.8729 18.9407L19.1658 18.2336L18.4587 17.5265L17.5304 18.4548L18.2375 19.1619ZM19.1658 18.2336H20.1658V11.3932H19.1658H18.1658V18.2336H19.1658ZM19.1658 11.3932L19.8729 10.6861L18.9446 9.75774L18.2375 10.4648L17.5304 11.172L18.4587 12.1003L19.1658 11.3932Z" fill="#BEDCE4" mask="url(#path-5-inside-1_3154_932)"/>
</g>
<defs>
<clipPath id="clip0_3154_932">
<rect width="20" height="20" fill="white"/>
</clipPath>
</defs>
</svg>
