<svg width="27" height="28" viewBox="0 0 27 28" fill="none" xmlns="http://www.w3.org/2000/svg">
<g clip-path="url(#clip0_3555_943)">
<path d="M8.72656 23.1465C8.72656 25.8238 10.8948 27.9997 13.5626 27.9997C16.2305 27.9997 18.3987 25.8238 18.3987 23.1465" fill="#BEDCE4"/>
<mask id="path-2-inside-1_3555_943" fill="white">
<path d="M17.6323 4.56668C18.7744 5.37256 19.1224 10.19 19.4079 13.7627C19.5953 16.064 20.7552 18.1772 22.5933 19.5651L24.9846 21.3738C25.2433 21.5708 25.1095 21.9827 24.7794 21.9827H2.22285C1.91056 21.9827 1.7678 21.5977 1.99979 21.3917L4.22153 19.4129C5.67593 18.1145 6.61281 16.3415 6.86264 14.3985C7.32662 10.7451 7.95121 5.3457 9.37884 4.41445L13.5725 1.67445M12.4661 0L8.27243 2.74001C6.28267 4.03838 5.65808 7.91557 4.92642 13.6732L4.86397 14.1477C4.67659 15.5983 3.98062 16.9325 2.89206 17.9085L-0.0078125 20.4963L1.32167 24.0064H25.7876L26.9922 20.3978L23.7889 17.9712C22.4059 16.9236 21.5404 15.3387 21.3977 13.6105L21.3709 13.2523C20.8802 7.13655 20.4697 4.12792 18.7833 2.937L14.7146 0.0447713L12.4661 0Z"/>
</mask>
<path d="M17.6323 4.56668C18.7744 5.37256 19.1224 10.19 19.4079 13.7627C19.5953 16.064 20.7552 18.1772 22.5933 19.5651L24.9846 21.3738C25.2433 21.5708 25.1095 21.9827 24.7794 21.9827H2.22285C1.91056 21.9827 1.7678 21.5977 1.99979 21.3917L4.22153 19.4129C5.67593 18.1145 6.61281 16.3415 6.86264 14.3985C7.32662 10.7451 7.95121 5.3457 9.37884 4.41445L13.5725 1.67445M12.4661 0L8.27243 2.74001C6.28267 4.03838 5.65808 7.91557 4.92642 13.6732L4.86397 14.1477C4.67659 15.5983 3.98062 16.9325 2.89206 17.9085L-0.0078125 20.4963L1.32167 24.0064H25.7876L26.9922 20.3978L23.7889 17.9712C22.4059 16.9236 21.5404 15.3387 21.3977 13.6105L21.3709 13.2523C20.8802 7.13655 20.4697 4.12792 18.7833 2.937L14.7146 0.0447713L12.4661 0Z" fill="#46675D"/>
<path d="M19.4079 13.7627L19.2086 13.7786L19.2086 13.7789L19.4079 13.7627ZM22.5933 19.5651L22.714 19.4056L22.7138 19.4055L22.5933 19.5651ZM24.9846 21.3738L25.1057 21.2147L25.1052 21.2143L24.9846 21.3738ZM1.99979 21.3917L2.13257 21.5413L2.13281 21.5411L1.99979 21.3917ZM4.22153 19.4129L4.35456 19.5622L4.35473 19.5621L4.22153 19.4129ZM6.86264 14.3985L7.06101 14.424L7.06105 14.4237L6.86264 14.3985ZM9.37884 4.41445L9.4881 4.58197L9.48823 4.58189L9.37884 4.41445ZM12.4661 0L12.4701 -0.19996L12.4084 -0.201189L12.3567 -0.16743L12.4661 0ZM8.27243 2.74001L8.38172 2.9075L8.38182 2.90744L8.27243 2.74001ZM4.92642 13.6732L5.12472 13.6993L5.12483 13.6984L4.92642 13.6732ZM4.86397 14.1477L4.66567 14.1216L4.66561 14.1221L4.86397 14.1477ZM2.89206 17.9085L3.02522 18.0578L3.02557 18.0574L2.89206 17.9085ZM-0.0078125 20.4963L-0.140976 20.3471L-0.243533 20.4386L-0.194846 20.5672L-0.0078125 20.4963ZM1.32167 24.0064L1.13463 24.0772L1.18355 24.2064H1.32167V24.0064ZM25.7876 24.0064V24.2064H25.9317L25.9773 24.0697L25.7876 24.0064ZM26.9922 20.3978L27.1819 20.4612L27.2273 20.325L27.113 20.2384L26.9922 20.3978ZM23.7889 17.9712L23.9097 17.8118L23.9097 17.8118L23.7889 17.9712ZM21.3977 13.6105L21.1982 13.6254L21.1984 13.627L21.3977 13.6105ZM21.3709 13.2523L21.5704 13.2374L21.5703 13.2363L21.3709 13.2523ZM18.7833 2.937L18.6675 3.10001L18.668 3.10037L18.7833 2.937ZM14.7146 0.0447713L14.8305 -0.11824L14.7802 -0.153962L14.7186 -0.155189L14.7146 0.0447713ZM17.6323 4.56668L17.517 4.73009C17.6254 4.80659 17.7379 4.94126 17.8498 5.14346C17.9607 5.34391 18.0644 5.59886 18.1608 5.90181C18.3539 6.50787 18.5115 7.28529 18.6436 8.15708C18.9077 9.90015 19.0656 11.9895 19.2086 13.7786L19.4079 13.7627L19.6073 13.7468C19.4647 11.9632 19.3058 9.85744 19.0391 8.09715C18.9057 7.21727 18.7444 6.41594 18.542 5.78043C18.4408 5.46261 18.3277 5.18106 18.1998 4.94986C18.0729 4.7204 17.9247 4.52823 17.7476 4.40326L17.6323 4.56668ZM19.4079 13.7627L19.2086 13.7789C19.4006 16.1369 20.5891 18.3023 22.4728 19.7247L22.5933 19.5651L22.7138 19.4055C20.9214 18.052 19.79 15.9911 19.6073 13.7465L19.4079 13.7627ZM22.5933 19.5651L22.4727 19.7246L24.8639 21.5333L24.9846 21.3738L25.1052 21.2143L22.714 19.4056L22.5933 19.5651ZM24.9846 21.3738L24.8634 21.533C24.9729 21.6163 24.9141 21.7827 24.7794 21.7827V21.9827V22.1827C25.3049 22.1827 25.5137 21.5253 25.1057 21.2147L24.9846 21.3738ZM24.7794 21.9827V21.7827H2.22285V21.9827V22.1827H24.7794V21.9827ZM2.22285 21.9827V21.7827C2.09782 21.7827 2.03568 21.6273 2.13257 21.5413L1.99979 21.3917L1.86701 21.2422C1.49991 21.5681 1.7233 22.1827 2.22285 22.1827V21.9827ZM1.99979 21.3917L2.13281 21.5411L4.35456 19.5622L4.22153 19.4129L4.08851 19.2635L1.86676 21.2424L1.99979 21.3917ZM4.22153 19.4129L4.35473 19.5621C5.84498 18.2317 6.80503 16.4148 7.06101 14.424L6.86264 14.3985L6.66428 14.373C6.42059 16.2683 5.50688 17.9973 4.08834 19.2637L4.22153 19.4129ZM6.86264 14.3985L7.06105 14.4237C7.29345 12.5938 7.5646 10.3395 7.95533 8.42568C8.15073 7.46863 8.37454 6.60453 8.63536 5.92526C8.90037 5.23506 9.18856 4.77736 9.4881 4.58197L9.37884 4.41445L9.26957 4.24694C8.8553 4.51717 8.53005 5.08362 8.26194 5.78188C7.98962 6.49109 7.76061 7.37979 7.56341 8.34566C7.16895 10.2777 6.89582 12.5498 6.66424 14.3733L6.86264 14.3985ZM9.37884 4.41445L9.48823 4.58189L13.6819 1.84188L13.5725 1.67445L13.4631 1.50702L9.26944 4.24702L9.37884 4.41445ZM12.4661 0L12.3567 -0.16743L8.16303 2.57258L8.27243 2.74001L8.38182 2.90744L12.5755 0.16743L12.4661 0ZM8.27243 2.74001L8.16313 2.57251C7.10215 3.26483 6.43287 4.62353 5.93446 6.48259C5.43403 8.34922 5.09355 10.7716 4.72802 13.648L4.92642 13.6732L5.12483 13.6984C5.49096 10.8172 5.8286 8.42213 6.32082 6.58617C6.81506 4.74264 7.45295 3.51355 8.38172 2.9075L8.27243 2.74001ZM4.92642 13.6732L4.72813 13.6471L4.66568 14.1216L4.86397 14.1477L5.06225 14.1738L5.12471 13.6993L4.92642 13.6732ZM4.86397 14.1477L4.66561 14.1221C4.48431 15.5257 3.81104 16.816 2.75854 17.7596L2.89206 17.9085L3.02557 18.0574C4.1502 17.0491 4.86887 15.671 5.06232 14.1734L4.86397 14.1477ZM2.89206 17.9085L2.75889 17.7593L-0.140976 20.3471L-0.0078125 20.4963L0.125351 20.6455L3.02522 18.0578L2.89206 17.9085ZM-0.0078125 20.4963L-0.194846 20.5672L1.13463 24.0772L1.32167 24.0064L1.5087 23.9356L0.179221 20.4255L-0.0078125 20.4963ZM1.32167 24.0064V24.2064H25.7876V24.0064V23.8064H1.32167V24.0064ZM25.7876 24.0064L25.9773 24.0697L27.1819 20.4612L26.9922 20.3978L26.8025 20.3345L25.5979 23.9431L25.7876 24.0064ZM26.9922 20.3978L27.113 20.2384L23.9097 17.8118L23.7889 17.9712L23.6682 18.1306L26.8714 20.5572L26.9922 20.3978ZM23.7889 17.9712L23.9097 17.8118C22.5723 16.7987 21.7351 15.2659 21.597 13.594L21.3977 13.6105L21.1984 13.627C21.3458 15.4114 22.2395 17.0484 23.6682 18.1306L23.7889 17.9712ZM21.3977 13.6105L21.5971 13.5956L21.5703 13.2374L21.3709 13.2523L21.1715 13.2672L21.1982 13.6254L21.3977 13.6105ZM21.3709 13.2523L21.5703 13.2363C21.3251 10.181 21.099 7.88561 20.7206 6.20394C20.3428 4.52486 19.8042 3.41309 18.8987 2.77363L18.7833 2.937L18.668 3.10037C19.4488 3.65183 19.9587 4.63984 20.3304 6.29175C20.7015 7.94106 20.926 10.2078 21.1715 13.2683L21.3709 13.2523ZM18.7833 2.937L18.8992 2.77399L14.8305 -0.11824L14.7146 0.0447713L14.5987 0.207783L18.6675 3.10001L18.7833 2.937ZM14.7146 0.0447713L14.7186 -0.155189L12.4701 -0.19996L12.4661 0L12.4621 0.19996L14.7106 0.244732L14.7146 0.0447713Z" fill="#EAE9E5" mask="url(#path-2-inside-1_3555_943)"/>
</g>
<defs>
<clipPath id="clip0_3555_943">
<rect width="27" height="28" fill="white"/>
</clipPath>
</defs>
</svg>
