<svg width="24" height="22" viewBox="0 0 24 22" fill="none" xmlns="http://www.w3.org/2000/svg">
<g clip-path="url(#clip0_1529_794)">
<path d="M1.51615 18.4125L0 16.8794V1.5331L1.51615 0H21.7417L23.2578 1.5331V16.8794L21.7417 18.4125H9.96114C9.55936 18.4125 9.16515 18.5275 8.81644 18.7422L3.56296 22L3.49474 19.2404C3.48716 18.7805 3.1157 18.4202 2.66085 18.4202H1.50857L1.51615 18.4125Z" fill="#46675D"/>
<path d="M20.7101 1.5332H2.54661C1.97721 1.5332 1.51562 1.99995 1.51562 2.57571V15.837C1.51562 16.4128 1.97721 16.8795 2.54661 16.8795H20.7101C21.2795 16.8795 21.7411 16.4128 21.7411 15.837V2.57571C21.7411 1.99995 21.2795 1.5332 20.7101 1.5332Z" fill="white"/>
<path d="M10.6602 8.9923H12.3279C13.2907 8.9923 13.6242 8.68568 13.6242 7.77349V7.48986C13.6242 6.57767 13.2907 6.27105 12.3279 6.27105H10.9255C9.94756 6.27105 9.62917 6.57767 9.62917 7.4592V7.55119L7.97656 7.35188V7.20624C7.97656 5.58882 8.75738 4.82227 10.4631 4.82227H12.7904C14.496 4.82227 15.2768 5.58115 15.2768 7.22923V7.89613C15.2768 9.54422 14.496 10.3031 12.7904 10.3031H12.2218L12.1839 11.3226H10.7511L10.6602 8.98463V8.9923ZM10.3721 13.6223V13.4613C10.3721 12.7101 10.5995 12.4954 11.4561 12.4954H11.4789C12.3279 12.4954 12.5629 12.7101 12.5629 13.4613V13.6223C12.5629 14.3735 12.3279 14.5881 11.4789 14.5881H11.4561C10.5995 14.5881 10.3721 14.3735 10.3721 13.6223Z" fill="#BEDCE4"/>
</g>
<defs>
<clipPath id="clip0_1529_794">
<rect width="23.2578" height="22" fill="white"/>
</clipPath>
</defs>
</svg>
