<svg width="21" height="20" viewBox="0 0 21 20" fill="none" xmlns="http://www.w3.org/2000/svg">
<path d="M10.8838 2.16602C10.5264 4.69017 9.83856 6.48081 8.5791 7.72656C7.3228 8.96913 5.5194 9.64782 2.97852 10C5.51951 10.3522 7.32278 11.0318 8.5791 12.2744C9.83841 13.5201 10.5264 15.3102 10.8838 17.834C11.2412 15.3101 11.9301 13.5201 13.1895 12.2744C14.4455 11.0321 16.248 10.3522 18.7881 10C16.2482 9.64777 14.4455 8.96877 13.1895 7.72656C11.93 6.4808 11.2412 4.69022 10.8838 2.16602ZM20.3672 11.2402L20.2305 11.2529C17.2813 11.5185 15.4094 12.0853 14.2012 13.2803C12.9932 14.475 12.4196 16.3269 12.1484 19.2451L12.1357 19.3809H9.63281L9.62012 19.2451C9.34901 16.3271 8.77518 14.4737 7.56738 13.2783C6.35912 12.0826 4.48641 11.5157 1.53711 11.2529L1.40039 11.2412V8.75977L1.53711 8.74805C4.48647 8.48246 6.35909 7.91574 7.56738 6.7207C8.7753 5.52602 9.34898 3.67398 9.62012 0.755859L9.63281 0.619141H12.1357L12.1484 0.755859C12.4196 3.67397 12.9932 5.52728 14.2012 6.72266C15.4094 7.91825 17.2814 8.48523 20.2305 8.74805L20.3672 8.75977V11.2402Z" fill="#46675D" stroke="#46675D" stroke-width="0.3"/>
<path d="M20.1211 3.61877C18.1211 3.79618 17.4488 4.46146 17.2695 6.44067C17.0846 4.46146 16.418 3.79618 14.418 3.61877C16.418 3.44137 17.0902 2.77609 17.2695 0.796875C17.4544 2.77609 18.1211 3.44137 20.1211 3.61877Z" fill="#BEDCE4" stroke="#BEDCE4" stroke-miterlimit="10"/>
</svg>
