<svg width="23" height="20" viewBox="0 0 23 20" fill="none" xmlns="http://www.w3.org/2000/svg">
<path d="M11.5215 2.30078C11.3009 2.08924 10.9169 2.08924 10.6963 2.30078H10.6953L3.91016 8.76465V8.76562C3.66574 8.99582 3.53333 9.29586 3.5332 9.60645V17.5615C3.53339 17.688 3.65765 17.8222 3.84766 17.8223H7.8877C8.06748 17.8221 8.18457 17.6964 8.18457 17.5762V12.6133C8.18457 12.2877 8.4783 12.0518 8.79883 12.0518H13.4414C13.7619 12.0518 14.0566 12.2877 14.0566 12.6133V17.5615C14.0568 17.6879 14.1803 17.8221 14.3701 17.8223H18.375C18.5651 17.8223 18.6893 17.688 18.6895 17.5615V9.60645C18.6893 9.29725 18.5587 8.99834 18.3164 8.76855L18.3105 8.76367L18.3066 8.75977L11.5215 2.30078ZM20.1504 18.0352L20.0996 18.0791L18.9395 19.1074L18.8965 19.1445H13.8438L13.8008 19.1074L12.6406 18.0791L12.5898 18.0352V13.374H9.63379V18.0352L9.58301 18.0791L8.42188 19.1074L8.37988 19.1445H3.32617L3.28418 19.1074L2.12305 18.0791L2.07227 18.0352V9.01953L2.08594 8.99023L2.39941 8.29199L2.41113 8.26465L2.43262 8.24414L10.1582 0.891602L10.2012 0.849609H12.0215L12.0654 0.891602L19.79 8.25L19.8115 8.26953L19.8242 8.29688L20.1377 8.99609L20.1504 9.02539V18.0352Z" fill="#46675D" stroke="#46675D" stroke-width="0.3"/>
</svg>
