<svg width="44" height="44" viewBox="0 0 44 44" fill="none" xmlns="http://www.w3.org/2000/svg">
<path d="M21.9531 11.8066V17.9116" stroke="#292D32" stroke-width="1.5" stroke-miterlimit="10" stroke-linecap="round"/>
<path d="M21.9886 3.66602C15.2566 3.66602 9.80524 9.12935 9.80524 15.876V19.726C9.80524 20.9727 9.29303 22.8427 8.65276 23.906L6.32951 27.7927C4.90263 30.1943 5.89047 32.871 8.52471 33.751C17.2689 36.666 26.7265 36.666 35.4708 33.751C37.9404 32.926 39.0014 30.0293 37.666 27.7927L35.3427 23.906C34.7024 22.8427 34.1902 20.9543 34.1902 19.726V15.876C34.1719 9.16602 28.6839 3.66602 21.9886 3.66602Z" stroke="#292D32" stroke-width="1.5" stroke-miterlimit="10" stroke-linecap="round"/>
<path d="M28.0427 34.5039C28.0427 37.8589 25.2987 40.6089 21.951 40.6089C20.2864 40.6089 18.7497 39.9122 17.6521 38.8122C16.5545 37.7122 15.8594 36.1722 15.8594 34.5039" stroke="#292D32" stroke-width="1.5" stroke-miterlimit="10"/>
</svg>
