<svg width="29" height="29" viewBox="0 0 29 29" fill="none" xmlns="http://www.w3.org/2000/svg">
<g clip-path="url(#clip0_3555_958)">
<path d="M14.5007 20.5679C11.1534 20.5679 8.43359 17.8481 8.43359 14.5007C8.43359 11.1534 11.1534 8.43359 14.5007 8.43359C17.8481 8.43359 20.5679 11.1534 20.5679 14.5007C20.5679 17.8481 17.8481 20.5679 14.5007 20.5679Z" fill="#BEDCE4"/>
<mask id="path-2-inside-1_3555_958" fill="white">
<path d="M16.5119 1.60932V4.37736C16.5119 4.5061 16.6084 4.61876 16.7372 4.65094C17.8718 4.90844 18.9339 5.35905 19.8834 5.9545C19.9961 6.02691 20.1409 6.01082 20.2375 5.91426L21.9997 4.15205C22.1123 4.0394 22.2894 4.0394 22.402 4.15205L24.8401 6.59018C24.9528 6.70283 24.9528 6.87986 24.8401 6.99251L23.0779 8.75472C22.9814 8.85128 22.9733 8.99612 23.0377 9.10877C23.6412 10.0583 24.0918 11.1204 24.3412 12.255C24.3734 12.3837 24.4861 12.4803 24.6148 12.4803H27.1012C27.2622 12.4803 27.3909 12.609 27.3909 12.77V16.222C27.3909 16.3829 27.2622 16.5117 27.1012 16.5117H24.6148C24.4861 16.5117 24.3734 16.6082 24.3412 16.737C24.0837 17.8715 23.6331 18.9337 23.0377 19.8832C22.9653 19.9958 22.9814 20.1407 23.0779 20.2372L24.8401 21.9994C24.9528 22.1121 24.9528 22.2891 24.8401 22.4018L22.402 24.8399C22.2894 24.9526 22.1123 24.9526 21.9997 24.8399L20.2375 23.0777C20.1409 22.9811 19.9961 22.9731 19.8834 23.0375C18.9339 23.641 17.8718 24.0916 16.7372 24.341C16.6084 24.3732 16.5119 24.4858 16.5119 24.6146V27.101C16.5119 27.2619 16.3831 27.3907 16.2222 27.3907H12.7702C12.6093 27.3907 12.4805 27.2619 12.4805 27.101V24.6146C12.4805 24.4858 12.384 24.3732 12.2552 24.341C11.1207 24.0835 10.0585 23.6329 9.109 23.0375C8.99635 22.965 8.85151 22.9811 8.75495 23.0777L6.99274 24.8399C6.88009 24.9526 6.70306 24.9526 6.59041 24.8399L4.15229 22.4018C4.03963 22.2891 4.03963 22.1121 4.15229 21.9994L5.9145 20.2372C6.01105 20.1407 6.0191 19.9958 5.95473 19.8832C5.35123 18.9337 4.90062 17.8715 4.65118 16.737C4.61899 16.6082 4.50634 16.5117 4.37759 16.5117H1.89119C1.73026 16.5117 1.60151 16.3829 1.60151 16.222V12.77C1.60151 12.609 1.73026 12.4803 1.89119 12.4803H4.37759C4.50634 12.4803 4.61899 12.3837 4.65118 12.255C4.90867 11.1204 5.35928 10.0583 5.95473 9.10877C6.02715 8.99612 6.01105 8.85128 5.9145 8.75472L4.15229 6.99251C4.03963 6.87986 4.03963 6.70283 4.15229 6.59018L6.59041 4.15205C6.70306 4.0394 6.88009 4.0394 6.99274 4.15205L8.75495 5.91426C8.85151 6.01082 8.99635 6.01887 9.109 5.9545C10.0585 5.351 11.1207 4.90039 12.2552 4.65094C12.384 4.61876 12.4805 4.5061 12.4805 4.37736V1.89095C12.4805 1.73002 12.6093 1.60128 12.7702 1.60128H16.5038M16.5119 0H12.4886L10.8793 1.60932V3.37153C10.2999 3.5566 9.73664 3.798 9.18947 4.07159L7.94224 2.82436H5.66505L2.81655 5.67286V7.95006L4.06377 9.19728C3.78214 9.74445 3.54879 10.3077 3.36372 10.8871H1.60151L-0.0078125 12.4964V16.5197L1.60151 18.129H3.36372C3.54879 18.7084 3.79019 19.2716 4.06377 19.8188L2.81655 21.066V23.3432L5.66505 26.1917H7.94224L9.18947 24.9445C9.73664 25.2261 10.2999 25.4595 10.8793 25.6446V27.4068L12.4886 29.0161H16.5119L18.1212 27.4068V25.6446C18.7006 25.4595 19.2638 25.2181 19.811 24.9445L21.0582 26.1917H23.3354L26.1839 23.3432V21.066L24.9367 19.8188C25.2183 19.2716 25.4517 18.7084 25.6367 18.129H27.3909L29.0002 16.5197V12.4964L27.3909 10.8871H25.6367C25.4517 10.3077 25.2103 9.74445 24.9367 9.19728L26.1839 7.95006V5.67286L23.3354 2.82436H21.0582L19.811 4.07159C19.2638 3.78996 18.7006 3.5566 18.1212 3.37153V1.61737L16.5119 0.00804661V0Z"/>
</mask>
<path d="M16.5119 1.60932V4.37736C16.5119 4.5061 16.6084 4.61876 16.7372 4.65094C17.8718 4.90844 18.9339 5.35905 19.8834 5.9545C19.9961 6.02691 20.1409 6.01082 20.2375 5.91426L21.9997 4.15205C22.1123 4.0394 22.2894 4.0394 22.402 4.15205L24.8401 6.59018C24.9528 6.70283 24.9528 6.87986 24.8401 6.99251L23.0779 8.75472C22.9814 8.85128 22.9733 8.99612 23.0377 9.10877C23.6412 10.0583 24.0918 11.1204 24.3412 12.255C24.3734 12.3837 24.4861 12.4803 24.6148 12.4803H27.1012C27.2622 12.4803 27.3909 12.609 27.3909 12.77V16.222C27.3909 16.3829 27.2622 16.5117 27.1012 16.5117H24.6148C24.4861 16.5117 24.3734 16.6082 24.3412 16.737C24.0837 17.8715 23.6331 18.9337 23.0377 19.8832C22.9653 19.9958 22.9814 20.1407 23.0779 20.2372L24.8401 21.9994C24.9528 22.1121 24.9528 22.2891 24.8401 22.4018L22.402 24.8399C22.2894 24.9526 22.1123 24.9526 21.9997 24.8399L20.2375 23.0777C20.1409 22.9811 19.9961 22.9731 19.8834 23.0375C18.9339 23.641 17.8718 24.0916 16.7372 24.341C16.6084 24.3732 16.5119 24.4858 16.5119 24.6146V27.101C16.5119 27.2619 16.3831 27.3907 16.2222 27.3907H12.7702C12.6093 27.3907 12.4805 27.2619 12.4805 27.101V24.6146C12.4805 24.4858 12.384 24.3732 12.2552 24.341C11.1207 24.0835 10.0585 23.6329 9.109 23.0375C8.99635 22.965 8.85151 22.9811 8.75495 23.0777L6.99274 24.8399C6.88009 24.9526 6.70306 24.9526 6.59041 24.8399L4.15229 22.4018C4.03963 22.2891 4.03963 22.1121 4.15229 21.9994L5.9145 20.2372C6.01105 20.1407 6.0191 19.9958 5.95473 19.8832C5.35123 18.9337 4.90062 17.8715 4.65118 16.737C4.61899 16.6082 4.50634 16.5117 4.37759 16.5117H1.89119C1.73026 16.5117 1.60151 16.3829 1.60151 16.222V12.77C1.60151 12.609 1.73026 12.4803 1.89119 12.4803H4.37759C4.50634 12.4803 4.61899 12.3837 4.65118 12.255C4.90867 11.1204 5.35928 10.0583 5.95473 9.10877C6.02715 8.99612 6.01105 8.85128 5.9145 8.75472L4.15229 6.99251C4.03963 6.87986 4.03963 6.70283 4.15229 6.59018L6.59041 4.15205C6.70306 4.0394 6.88009 4.0394 6.99274 4.15205L8.75495 5.91426C8.85151 6.01082 8.99635 6.01887 9.109 5.9545C10.0585 5.351 11.1207 4.90039 12.2552 4.65094C12.384 4.61876 12.4805 4.5061 12.4805 4.37736V1.89095C12.4805 1.73002 12.6093 1.60128 12.7702 1.60128H16.5038M16.5119 0H12.4886L10.8793 1.60932V3.37153C10.2999 3.5566 9.73664 3.798 9.18947 4.07159L7.94224 2.82436H5.66505L2.81655 5.67286V7.95006L4.06377 9.19728C3.78214 9.74445 3.54879 10.3077 3.36372 10.8871H1.60151L-0.0078125 12.4964V16.5197L1.60151 18.129H3.36372C3.54879 18.7084 3.79019 19.2716 4.06377 19.8188L2.81655 21.066V23.3432L5.66505 26.1917H7.94224L9.18947 24.9445C9.73664 25.2261 10.2999 25.4595 10.8793 25.6446V27.4068L12.4886 29.0161H16.5119L18.1212 27.4068V25.6446C18.7006 25.4595 19.2638 25.2181 19.811 24.9445L21.0582 26.1917H23.3354L26.1839 23.3432V21.066L24.9367 19.8188C25.2183 19.2716 25.4517 18.7084 25.6367 18.129H27.3909L29.0002 16.5197V12.4964L27.3909 10.8871H25.6367C25.4517 10.3077 25.2103 9.74445 24.9367 9.19728L26.1839 7.95006V5.67286L23.3354 2.82436H21.0582L19.811 4.07159C19.2638 3.78996 18.7006 3.5566 18.1212 3.37153V1.61737L16.5119 0.00804661V0Z" fill="#46675D"/>
<path d="M16.7372 4.65094L16.6887 4.84502L16.6929 4.84598L16.7372 4.65094ZM19.8834 5.9545L19.9916 5.78625L19.9897 5.78506L19.8834 5.9545ZM20.2375 5.91426L20.096 5.77284V5.77284L20.2375 5.91426ZM21.9997 4.15205L22.1411 4.29347V4.29347L21.9997 4.15205ZM22.402 4.15205L22.2606 4.29347V4.29347L22.402 4.15205ZM24.8401 6.59018L24.9816 6.44876V6.44876L24.8401 6.59018ZM24.8401 6.99251L24.9816 7.13393L24.8401 6.99251ZM23.0779 8.75472L23.2193 8.89614L23.0779 8.75472ZM23.0377 9.10877L22.8638 9.20811L22.8689 9.21605L23.0377 9.10877ZM24.3412 12.255L24.1458 12.298L24.1472 12.3035L24.3412 12.255ZM24.3412 16.737L24.1472 16.6884L24.1462 16.6927L24.3412 16.737ZM23.0377 19.8832L23.2059 19.9913L23.2071 19.9894L23.0377 19.8832ZM23.0779 20.2372L23.2193 20.0958L23.0779 20.2372ZM24.8401 21.9994L24.9816 21.858L24.8401 21.9994ZM24.8401 22.4018L24.9816 22.5432L24.8401 22.4018ZM22.402 24.8399L22.2606 24.6985L22.402 24.8399ZM21.9997 24.8399L22.1411 24.6985L21.9997 24.8399ZM20.2375 23.0777L20.3789 22.9363L20.2375 23.0777ZM19.8834 23.0375L19.7841 22.8636L19.7761 22.8687L19.8834 23.0375ZM16.7372 24.341L16.6942 24.1456L16.6887 24.147L16.7372 24.341ZM12.2552 24.341L12.3037 24.1469L12.2995 24.146L12.2552 24.341ZM9.109 23.0375L9.00084 23.2057L9.00274 23.2069L9.109 23.0375ZM8.75495 23.0777L8.61353 22.9363L8.75495 23.0777ZM6.59041 24.8399L6.44899 24.9813V24.9813L6.59041 24.8399ZM4.15229 22.4018L4.29371 22.2604V22.2604L4.15229 22.4018ZM4.15229 21.9994L4.29371 22.1409V22.1409L4.15229 21.9994ZM5.9145 20.2372L5.77307 20.0958V20.0958L5.9145 20.2372ZM5.95473 19.8832L6.12857 19.7838L6.12352 19.7759L5.95473 19.8832ZM4.65118 16.737L4.84659 16.694L4.84521 16.6885L4.65118 16.737ZM4.65118 12.255L4.84525 12.3035L4.84622 12.2993L4.65118 12.255ZM5.95473 9.10877L5.78648 9.00061L5.78529 9.00251L5.95473 9.10877ZM5.9145 8.75472L5.77307 8.89614V8.89614L5.9145 8.75472ZM4.15229 6.99251L4.29371 6.85109V6.85109L4.15229 6.99251ZM6.99274 4.15205L6.85132 4.29347V4.29347L6.99274 4.15205ZM8.75495 5.91426L8.89637 5.77284V5.77284L8.75495 5.91426ZM9.109 5.9545L9.20834 6.12834L9.21628 6.12329L9.109 5.9545ZM12.2552 4.65094L12.2982 4.84636L12.3037 4.84497L12.2552 4.65094ZM16.5119 0H16.7119V-0.2H16.5119V0ZM12.4886 0V-0.2H12.4057L12.3472 -0.141421L12.4886 0ZM10.8793 1.60932L10.7378 1.4679L10.6793 1.52648V1.60932H10.8793ZM10.8793 3.37153L10.9401 3.56205L11.0793 3.5176V3.37153H10.8793ZM9.18947 4.07159L9.04805 4.21301L9.14998 4.31494L9.27891 4.25047L9.18947 4.07159ZM7.94224 2.82436L8.08366 2.68294L8.02508 2.62436H7.94224V2.82436ZM5.66505 2.82436V2.62436H5.58221L5.52363 2.68294L5.66505 2.82436ZM2.81655 5.67286L2.67513 5.53144L2.61655 5.59002V5.67286H2.81655ZM2.81655 7.95006H2.61655V8.0329L2.67513 8.09148L2.81655 7.95006ZM4.06377 9.19728L4.2416 9.28881L4.30839 9.15905L4.2052 9.05586L4.06377 9.19728ZM3.36372 10.8871V11.0871H3.50979L3.55423 10.9479L3.36372 10.8871ZM1.60151 10.8871V10.6871H1.51867L1.46009 10.7456L1.60151 10.8871ZM-0.0078125 12.4964L-0.149234 12.355L-0.207813 12.4136V12.4964H-0.0078125ZM-0.0078125 16.5197H-0.207813V16.6025L-0.149234 16.6611L-0.0078125 16.5197ZM1.60151 18.129L1.46009 18.2704L1.51867 18.329H1.60151V18.129ZM3.36372 18.129L3.55423 18.0682L3.50979 17.929H3.36372V18.129ZM4.06377 19.8188L4.2052 19.9602L4.30713 19.8583L4.24266 19.7294L4.06377 19.8188ZM2.81655 21.066L2.67513 20.9246L2.61655 20.9832V21.066H2.81655ZM2.81655 23.3432H2.61655V23.4261L2.67513 23.4847L2.81655 23.3432ZM5.66505 26.1917L5.52363 26.3332L5.58221 26.3917H5.66505V26.1917ZM7.94224 26.1917V26.3917H8.02508L8.08366 26.3332L7.94224 26.1917ZM9.18947 24.9445L9.281 24.7667L9.15124 24.6999L9.04805 24.8031L9.18947 24.9445ZM10.8793 25.6446H11.0793V25.4985L10.9401 25.454L10.8793 25.6446ZM10.8793 27.4068H10.6793V27.4896L10.7378 27.5482L10.8793 27.4068ZM12.4886 29.0161L12.3472 29.1575L12.4057 29.2161H12.4886V29.0161ZM16.5119 29.0161V29.2161H16.5947L16.6533 29.1575L16.5119 29.0161ZM18.1212 27.4068L18.2626 27.5482L18.3212 27.4896V27.4068H18.1212ZM18.1212 25.6446L18.0604 25.454L17.9212 25.4985V25.6446H18.1212ZM19.811 24.9445L19.9524 24.8031L19.8505 24.7012L19.7216 24.7656L19.811 24.9445ZM21.0582 26.1917L20.9168 26.3332L20.9754 26.3917H21.0582V26.1917ZM23.3354 26.1917V26.3917H23.4183L23.4768 26.3332L23.3354 26.1917ZM26.1839 23.3432L26.3253 23.4847L26.3839 23.4261V23.3432H26.1839ZM26.1839 21.066H26.3839V20.9832L26.3253 20.9246L26.1839 21.066ZM24.9367 19.8188L24.7589 19.7273L24.6921 19.857L24.7953 19.9602L24.9367 19.8188ZM25.6367 18.129V17.929H25.4907L25.4462 18.0682L25.6367 18.129ZM27.3909 18.129V18.329H27.4737L27.5323 18.2704L27.3909 18.129ZM29.0002 16.5197L29.1417 16.6611L29.2002 16.6025V16.5197H29.0002ZM29.0002 12.4964H29.2002V12.4136L29.1417 12.355L29.0002 12.4964ZM27.3909 10.8871L27.5323 10.7456L27.4737 10.6871H27.3909V10.8871ZM25.6367 10.8871L25.4462 10.9479L25.4907 11.0871H25.6367V10.8871ZM24.9367 9.19728L24.7953 9.05586L24.6933 9.15779L24.7578 9.28672L24.9367 9.19728ZM26.1839 7.95006L26.3253 8.09148L26.3839 8.0329V7.95006H26.1839ZM26.1839 5.67286H26.3839V5.59002L26.3253 5.53144L26.1839 5.67286ZM23.3354 2.82436L23.4768 2.68294L23.4183 2.62436H23.3354V2.82436ZM21.0582 2.82436V2.62436H20.9754L20.9168 2.68294L21.0582 2.82436ZM19.811 4.07159L19.7195 4.24941L19.8492 4.3162L19.9524 4.21301L19.811 4.07159ZM18.1212 3.37153H17.9212V3.5176L18.0604 3.56205L18.1212 3.37153ZM18.1212 1.61737H18.3212V1.53453L18.2626 1.47595L18.1212 1.61737ZM16.5119 0.00804661H16.3119V0.0908893L16.3705 0.149468L16.5119 0.00804661ZM16.5119 1.60932H16.3119V4.37736H16.5119H16.7119V1.60932H16.5119ZM16.5119 4.37736H16.3119C16.3119 4.60842 16.4816 4.79319 16.6887 4.84497L16.7372 4.65094L16.7857 4.45692C16.7353 4.44432 16.7119 4.40378 16.7119 4.37736H16.5119ZM16.7372 4.65094L16.6929 4.84598C17.8047 5.0983 18.846 5.53997 19.7772 6.12393L19.8834 5.9545L19.9897 5.78506C19.0219 5.17812 17.9388 4.71857 16.7815 4.4559L16.7372 4.65094ZM19.8834 5.9545L19.7753 6.12273C19.9686 6.24702 20.2171 6.21746 20.3789 6.05568L20.2375 5.91426L20.096 5.77284C20.0647 5.80418 20.0235 5.80681 19.9916 5.78626L19.8834 5.9545ZM20.2375 5.91426L20.3789 6.05568L22.1411 4.29347L21.9997 4.15205L21.8583 4.01063L20.096 5.77284L20.2375 5.91426ZM21.9997 4.15205L22.1411 4.29347C22.1756 4.25893 22.226 4.25893 22.2606 4.29347L22.402 4.15205L22.5434 4.01063C22.3527 3.81987 22.049 3.81987 21.8583 4.01063L21.9997 4.15205ZM22.402 4.15205L22.2606 4.29347L24.6987 6.7316L24.8401 6.59018L24.9816 6.44876L22.5434 4.01063L22.402 4.15205ZM24.8401 6.59018L24.6987 6.7316C24.7333 6.76615 24.7333 6.81654 24.6987 6.85109L24.8401 6.99251L24.9816 7.13393C25.1723 6.94317 25.1723 6.63951 24.9816 6.44876L24.8401 6.59018ZM24.8401 6.99251L24.6987 6.85109L22.9365 8.6133L23.0779 8.75472L23.2193 8.89614L24.9816 7.13393L24.8401 6.99251ZM23.0779 8.75472L22.9365 8.6133C22.7677 8.78211 22.7612 9.02797 22.864 9.208L23.0377 9.10877L23.2113 9.00954C23.1855 8.96426 23.195 8.92044 23.2193 8.89614L23.0779 8.75472ZM23.0377 9.10877L22.8689 9.21605C23.4604 10.1467 23.9017 11.1872 24.1459 12.2979L24.3412 12.255L24.5366 12.212C24.2819 11.0537 23.822 9.96988 23.2065 9.00149L23.0377 9.10877ZM24.3412 12.255L24.1472 12.3035C24.199 12.5106 24.3838 12.6803 24.6148 12.6803V12.4803V12.2803C24.5884 12.2803 24.5479 12.2569 24.5353 12.2065L24.3412 12.255ZM24.6148 12.4803V12.6803H27.1012V12.4803V12.2803H24.6148V12.4803ZM27.1012 12.4803V12.6803C27.1517 12.6803 27.1909 12.7195 27.1909 12.77H27.3909H27.5909C27.5909 12.4986 27.3726 12.2803 27.1012 12.2803V12.4803ZM27.3909 12.77H27.1909V16.222H27.3909H27.5909V12.77H27.3909ZM27.3909 16.222H27.1909C27.1909 16.2725 27.1517 16.3117 27.1012 16.3117V16.5117V16.7117C27.3726 16.7117 27.5909 16.4934 27.5909 16.222H27.3909ZM27.1012 16.5117V16.3117H24.6148V16.5117V16.7117H27.1012V16.5117ZM24.6148 16.5117V16.3117C24.3838 16.3117 24.199 16.4813 24.1472 16.6885L24.3412 16.737L24.5353 16.7855C24.5479 16.7351 24.5884 16.7117 24.6148 16.7117V16.5117ZM24.3412 16.737L24.1462 16.6927C23.8939 17.8045 23.4522 18.8457 22.8683 19.7769L23.0377 19.8832L23.2071 19.9894C23.8141 19.0216 24.2736 17.9386 24.5363 16.7812L24.3412 16.737ZM23.0377 19.8832L22.8695 19.775C22.7452 19.9684 22.7747 20.2169 22.9365 20.3787L23.0779 20.2372L23.2193 20.0958C23.188 20.0645 23.1854 20.0233 23.2059 19.9913L23.0377 19.8832ZM23.0779 20.2372L22.9365 20.3787L24.6987 22.1409L24.8401 21.9994L24.9816 21.858L23.2193 20.0958L23.0779 20.2372ZM24.8401 21.9994L24.6987 22.1409C24.7333 22.1754 24.7333 22.2258 24.6987 22.2604L24.8401 22.4018L24.9816 22.5432C25.1723 22.3524 25.1723 22.0488 24.9816 21.858L24.8401 21.9994ZM24.8401 22.4018L24.6987 22.2604L22.2606 24.6985L22.402 24.8399L22.5434 24.9813L24.9816 22.5432L24.8401 22.4018ZM22.402 24.8399L22.2606 24.6985C22.226 24.733 22.1756 24.733 22.1411 24.6985L21.9997 24.8399L21.8583 24.9813C22.049 25.1721 22.3527 25.1721 22.5434 24.9813L22.402 24.8399ZM21.9997 24.8399L22.1411 24.6985L20.3789 22.9363L20.2375 23.0777L20.096 23.2191L21.8583 24.9813L21.9997 24.8399ZM20.2375 23.0777L20.3789 22.9363C20.2101 22.7675 19.9642 22.7609 19.7842 22.8638L19.8834 23.0375L19.9826 23.2111C20.0279 23.1852 20.0717 23.1948 20.096 23.2191L20.2375 23.0777ZM19.8834 23.0375L19.7761 22.8687C18.8455 23.4602 17.805 23.9015 16.6942 24.1457L16.7372 24.341L16.7801 24.5363C17.9385 24.2817 19.0223 23.8218 19.9907 23.2062L19.8834 23.0375ZM16.7372 24.341L16.6887 24.147C16.4816 24.1988 16.3119 24.3835 16.3119 24.6146H16.5119H16.7119C16.7119 24.5882 16.7353 24.5476 16.7857 24.535L16.7372 24.341ZM16.5119 24.6146H16.3119V27.101H16.5119H16.7119V24.6146H16.5119ZM16.5119 27.101H16.3119C16.3119 27.1515 16.2727 27.1907 16.2222 27.1907V27.3907V27.5907C16.4936 27.5907 16.7119 27.3724 16.7119 27.101H16.5119ZM16.2222 27.3907V27.1907H12.7702V27.3907V27.5907H16.2222V27.3907ZM12.7702 27.3907V27.1907C12.7197 27.1907 12.6805 27.1515 12.6805 27.101H12.4805H12.2805C12.2805 27.3724 12.4988 27.5907 12.7702 27.5907V27.3907ZM12.4805 27.101H12.6805V24.6146H12.4805H12.2805V27.101H12.4805ZM12.4805 24.6146H12.6805C12.6805 24.3835 12.5109 24.1988 12.3037 24.147L12.2552 24.341L12.2067 24.535C12.2571 24.5476 12.2805 24.5882 12.2805 24.6146H12.4805ZM12.2552 24.341L12.2995 24.146C11.1877 23.8937 10.1464 23.452 9.21526 22.868L9.109 23.0375L9.00274 23.2069C9.97056 23.8138 11.0536 24.2734 12.211 24.5361L12.2552 24.341ZM9.109 23.0375L9.21715 22.8692C9.02381 22.7449 8.7753 22.7745 8.61353 22.9363L8.75495 23.0777L8.89637 23.2191C8.92772 23.1878 8.96889 23.1851 9.00085 23.2057L9.109 23.0375ZM8.75495 23.0777L8.61353 22.9363L6.85132 24.6985L6.99274 24.8399L7.13416 24.9813L8.89637 23.2191L8.75495 23.0777ZM6.99274 24.8399L6.85132 24.6985C6.81677 24.733 6.76638 24.733 6.73183 24.6985L6.59041 24.8399L6.44899 24.9813C6.63975 25.1721 6.94341 25.1721 7.13416 24.9813L6.99274 24.8399ZM6.59041 24.8399L6.73183 24.6985L4.29371 22.2604L4.15229 22.4018L4.01087 22.5432L6.44899 24.9813L6.59041 24.8399ZM4.15229 22.4018L4.29371 22.2604C4.25916 22.2258 4.25916 22.1754 4.29371 22.1409L4.15229 21.9994L4.01087 21.858C3.82011 22.0488 3.82011 22.3524 4.01087 22.5432L4.15229 22.4018ZM4.15229 21.9994L4.29371 22.1409L6.05592 20.3787L5.9145 20.2372L5.77307 20.0958L4.01087 21.858L4.15229 21.9994ZM5.9145 20.2372L6.05592 20.3787C6.22474 20.2098 6.23125 19.964 6.12838 19.784L5.95473 19.8832L5.78108 19.9824C5.80695 20.0277 5.79737 20.0715 5.77307 20.0958L5.9145 20.2372ZM5.95473 19.8832L6.12352 19.7759C5.53203 18.8453 5.09073 17.8048 4.84651 16.694L4.65118 16.737L4.45584 16.7799C4.71052 17.9383 5.17043 19.0221 5.78594 19.9905L5.95473 19.8832ZM4.65118 16.737L4.84521 16.6885C4.79343 16.4813 4.60866 16.3117 4.37759 16.3117V16.5117V16.7117C4.40402 16.7117 4.44456 16.7351 4.45715 16.7855L4.65118 16.737ZM4.37759 16.5117V16.3117H1.89119V16.5117V16.7117H4.37759V16.5117ZM1.89119 16.5117V16.3117C1.84071 16.3117 1.80151 16.2725 1.80151 16.222H1.60151H1.40151C1.40151 16.4934 1.6198 16.7117 1.89119 16.7117V16.5117ZM1.60151 16.222H1.80151V12.77H1.60151H1.40151V16.222H1.60151ZM1.60151 12.77H1.80151C1.80151 12.7195 1.84071 12.6803 1.89119 12.6803V12.4803V12.2803C1.6198 12.2803 1.40151 12.4986 1.40151 12.77H1.60151ZM1.89119 12.4803V12.6803H4.37759V12.4803V12.2803H1.89119V12.4803ZM4.37759 12.4803V12.6803C4.60866 12.6803 4.79343 12.5106 4.84521 12.3035L4.65118 12.255L4.45715 12.2065C4.44456 12.2569 4.40402 12.2803 4.37759 12.2803V12.4803ZM4.65118 12.255L4.84622 12.2993C5.09853 11.1875 5.5402 10.1462 6.12417 9.21503L5.95473 9.10877L5.78529 9.00251C5.17835 9.97033 4.71881 11.0533 4.45614 12.2107L4.65118 12.255ZM5.95473 9.10877L6.12296 9.21692C6.24726 9.02357 6.21769 8.77507 6.05592 8.6133L5.9145 8.75472L5.77307 8.89614C5.80442 8.92748 5.80704 8.96866 5.78649 9.00062L5.95473 9.10877ZM5.9145 8.75472L6.05592 8.6133L4.29371 6.85109L4.15229 6.99251L4.01087 7.13393L5.77307 8.89614L5.9145 8.75472ZM4.15229 6.99251L4.29371 6.85109C4.25916 6.81654 4.25916 6.76615 4.29371 6.7316L4.15229 6.59018L4.01087 6.44876C3.82011 6.63951 3.82011 6.94317 4.01087 7.13393L4.15229 6.99251ZM4.15229 6.59018L4.29371 6.7316L6.73183 4.29347L6.59041 4.15205L6.44899 4.01063L4.01087 6.44876L4.15229 6.59018ZM6.59041 4.15205L6.73183 4.29347C6.76638 4.25893 6.81677 4.25893 6.85132 4.29347L6.99274 4.15205L7.13416 4.01063C6.94341 3.81987 6.63975 3.81987 6.44899 4.01063L6.59041 4.15205ZM6.99274 4.15205L6.85132 4.29347L8.61353 6.05568L8.75495 5.91426L8.89637 5.77284L7.13416 4.01063L6.99274 4.15205ZM8.75495 5.91426L8.61353 6.05568C8.78235 6.2245 9.0282 6.23102 9.20823 6.12814L9.109 5.9545L9.00977 5.78085C8.9645 5.80672 8.92067 5.79714 8.89637 5.77284L8.75495 5.91426ZM9.109 5.9545L9.21628 6.12329C10.1469 5.5318 11.1874 5.09049 12.2982 4.84628L12.2552 4.65094L12.2123 4.45561C11.0539 4.71028 9.97011 5.1702 9.00172 5.7857L9.109 5.9545ZM12.2552 4.65094L12.3037 4.84497C12.5109 4.79319 12.6805 4.60843 12.6805 4.37736H12.4805H12.2805C12.2805 4.40378 12.2571 4.44432 12.2067 4.45692L12.2552 4.65094ZM12.4805 4.37736H12.6805V1.89095H12.4805H12.2805V4.37736H12.4805ZM12.4805 1.89095H12.6805C12.6805 1.84048 12.7197 1.80128 12.7702 1.80128V1.60128V1.40128C12.4988 1.40128 12.2805 1.61957 12.2805 1.89095H12.4805ZM12.7702 1.60128V1.80128H16.5038V1.60128V1.40128H12.7702V1.60128ZM16.5119 0V-0.2H12.4886V0V0.2H16.5119V0ZM12.4886 0L12.3472 -0.141421L10.7378 1.4679L10.8793 1.60932L11.0207 1.75074L12.63 0.141421L12.4886 0ZM10.8793 1.60932H10.6793V3.37153H10.8793H11.0793V1.60932H10.8793ZM10.8793 3.37153L10.8184 3.18102C10.227 3.36994 9.65403 3.6157 9.10003 3.8927L9.18947 4.07159L9.27891 4.25047C9.81925 3.9803 10.3728 3.74327 10.9401 3.56205L10.8793 3.37153ZM9.18947 4.07159L9.33089 3.93017L8.08366 2.68294L7.94224 2.82436L7.80082 2.96578L9.04805 4.21301L9.18947 4.07159ZM7.94224 2.82436V2.62436H5.66505V2.82436V3.02436H7.94224V2.82436ZM5.66505 2.82436L5.52363 2.68294L2.67513 5.53144L2.81655 5.67286L2.95797 5.81429L5.80647 2.96578L5.66505 2.82436ZM2.81655 5.67286H2.61655V7.95006H2.81655H3.01655V5.67286H2.81655ZM2.81655 7.95006L2.67513 8.09148L3.92235 9.3387L4.06377 9.19728L4.2052 9.05586L2.95797 7.80863L2.81655 7.95006ZM4.06377 9.19728L3.88595 9.10575C3.5993 9.66266 3.36169 10.2362 3.1732 10.8262L3.36372 10.8871L3.55423 10.9479C3.73589 10.3793 3.96498 9.82624 4.2416 9.28881L4.06377 9.19728ZM3.36372 10.8871V10.6871H1.60151V10.8871V11.0871H3.36372V10.8871ZM1.60151 10.8871L1.46009 10.7456L-0.149234 12.355L-0.0078125 12.4964L0.133609 12.6378L1.74293 11.0285L1.60151 10.8871ZM-0.0078125 12.4964H-0.207813V16.5197H-0.0078125H0.192188V12.4964H-0.0078125ZM-0.0078125 16.5197L-0.149234 16.6611L1.46009 18.2704L1.60151 18.129L1.74293 17.9876L0.133609 16.3783L-0.0078125 16.5197ZM1.60151 18.129V18.329H3.36372V18.129V17.929H1.60151V18.129ZM3.36372 18.129L3.1732 18.1899C3.36213 18.7813 3.60789 19.3543 3.88489 19.9083L4.06377 19.8188L4.24266 19.7294C3.97249 19.189 3.73545 18.6355 3.55423 18.0682L3.36372 18.129ZM4.06377 19.8188L3.92235 19.6774L2.67513 20.9246L2.81655 21.066L2.95797 21.2075L4.2052 19.9602L4.06377 19.8188ZM2.81655 21.066H2.61655V23.3432H2.81655H3.01655V21.066H2.81655ZM2.81655 23.3432L2.67513 23.4847L5.52363 26.3332L5.66505 26.1917L5.80647 26.0503L2.95797 23.2018L2.81655 23.3432ZM5.66505 26.1917V26.3917H7.94224V26.1917V25.9917H5.66505V26.1917ZM7.94224 26.1917L8.08366 26.3332L9.33089 25.0859L9.18947 24.9445L9.04805 24.8031L7.80082 26.0503L7.94224 26.1917ZM9.18947 24.9445L9.09794 25.1223C9.65485 25.409 10.2284 25.6466 10.8184 25.8351L10.8793 25.6446L10.9401 25.454C10.3714 25.2724 9.81843 25.0433 9.281 24.7667L9.18947 24.9445ZM10.8793 25.6446H10.6793V27.4068H10.8793H11.0793V25.6446H10.8793ZM10.8793 27.4068L10.7378 27.5482L12.3472 29.1575L12.4886 29.0161L12.63 28.8747L11.0207 27.2654L10.8793 27.4068ZM12.4886 29.0161V29.2161H16.5119V29.0161V28.8161H12.4886V29.0161ZM16.5119 29.0161L16.6533 29.1575L18.2626 27.5482L18.1212 27.4068L17.9798 27.2654L16.3705 28.8747L16.5119 29.0161ZM18.1212 27.4068H18.3212V25.6446H18.1212H17.9212V27.4068H18.1212ZM18.1212 25.6446L18.1821 25.8351C18.7735 25.6462 19.3464 25.4004 19.9004 25.1234L19.811 24.9445L19.7216 24.7656C19.1812 25.0358 18.6276 25.2728 18.0604 25.454L18.1212 25.6446ZM19.811 24.9445L19.6696 25.0859L20.9168 26.3332L21.0582 26.1917L21.1996 26.0503L19.9524 24.8031L19.811 24.9445ZM21.0582 26.1917V26.3917H23.3354V26.1917V25.9917H21.0582V26.1917ZM23.3354 26.1917L23.4768 26.3332L26.3253 23.4847L26.1839 23.3432L26.0425 23.2018L23.194 26.0503L23.3354 26.1917ZM26.1839 23.3432H26.3839V21.066H26.1839H25.9839V23.3432H26.1839ZM26.1839 21.066L26.3253 20.9246L25.0781 19.6774L24.9367 19.8188L24.7953 19.9602L26.0425 21.2075L26.1839 21.066ZM24.9367 19.8188L25.1145 19.9103C25.4012 19.3534 25.6388 18.7799 25.8273 18.1899L25.6367 18.129L25.4462 18.0682C25.2646 18.6368 25.0355 19.1898 24.7589 19.7273L24.9367 19.8188ZM25.6367 18.129V18.329H27.3909V18.129V17.929H25.6367V18.129ZM27.3909 18.129L27.5323 18.2704L29.1417 16.6611L29.0002 16.5197L28.8588 16.3783L27.2495 17.9876L27.3909 18.129ZM29.0002 16.5197H29.2002V12.4964H29.0002H28.8002V16.5197H29.0002ZM29.0002 12.4964L29.1417 12.355L27.5323 10.7456L27.3909 10.8871L27.2495 11.0285L28.8588 12.6378L29.0002 12.4964ZM27.3909 10.8871V10.6871H25.6367V10.8871V11.0871H27.3909V10.8871ZM25.6367 10.8871L25.8273 10.8262C25.6383 10.2348 25.3926 9.66184 25.1156 9.10784L24.9367 9.19728L24.7578 9.28672C25.028 9.82706 25.265 10.3806 25.4462 10.9479L25.6367 10.8871ZM24.9367 9.19728L25.0781 9.3387L26.3253 8.09148L26.1839 7.95006L26.0425 7.80863L24.7953 9.05586L24.9367 9.19728ZM26.1839 7.95006H26.3839V5.67286H26.1839H25.9839V7.95006H26.1839ZM26.1839 5.67286L26.3253 5.53144L23.4768 2.68294L23.3354 2.82436L23.194 2.96578L26.0425 5.81429L26.1839 5.67286ZM23.3354 2.82436V2.62436H21.0582V2.82436V3.02436H23.3354V2.82436ZM21.0582 2.82436L20.9168 2.68294L19.6696 3.93017L19.811 4.07159L19.9524 4.21301L21.1996 2.96578L21.0582 2.82436ZM19.811 4.07159L19.9025 3.89376C19.3456 3.60712 18.7721 3.3695 18.1821 3.18102L18.1212 3.37153L18.0604 3.56205C18.629 3.74371 19.182 3.97279 19.7195 4.24941L19.811 4.07159ZM18.1212 3.37153H18.3212V1.61737H18.1212H17.9212V3.37153H18.1212ZM18.1212 1.61737L18.2626 1.47595L16.6533 -0.133375L16.5119 0.00804661L16.3705 0.149468L17.9798 1.75879L18.1212 1.61737ZM16.5119 0.00804661H16.7119V0H16.5119H16.3119V0.00804661H16.5119Z" fill="#EAE9E5" mask="url(#path-2-inside-1_3555_958)"/>
</g>
<defs>
<clipPath id="clip0_3555_958">
<rect width="29" height="29" fill="white"/>
</clipPath>
</defs>
</svg>
