<svg width="25" height="20" viewBox="0 0 25 20" fill="none" xmlns="http://www.w3.org/2000/svg">
<path d="M4.11695 18.6591L3.47198 17.9763V15.6136C2.24653 15.3063 1.32422 14.1318 1.32422 12.7388C1.32422 11.3458 2.24008 10.1713 3.47198 9.864V7.18722L4.11695 6.50437H6.4969C6.78713 5.20695 7.89648 4.23047 9.21223 4.23047C10.528 4.23047 11.6373 5.20012 11.9276 6.50437H14.3075L14.9525 7.18722V17.9763L14.3075 18.6591H4.11695Z" stroke="#46675D" stroke-width="1.4" stroke-miterlimit="10"/>
<path d="M15.227 18.1677L14.4595 18.8847L11.6797 14.3574H15.2722" fill="#294739"/>
<path d="M17.2598 1.5C18.317 1.5 19.2426 2.28929 19.4873 3.38281L19.5742 3.77344H22.1387L22.5 4.1543V14.5537L22.1387 14.9355H19.5742L19.4873 15.3271C19.2427 16.4259 18.3181 17.209 17.2598 17.209C16.2014 17.209 15.2768 16.4259 15.0322 15.3271L14.9453 14.9355H12.3809L12.0195 14.5537V12.2344C13.3387 11.9857 14.3094 10.7721 14.3096 9.3584C14.3096 7.94459 13.3388 6.73014 12.0195 6.48145V4.1543L12.3809 3.77344H14.9453L15.0322 3.38281C15.2768 2.28398 16.2014 1.50001 17.2598 1.5Z" fill="#BEDCE4" stroke="#BEDCE4"/>
</svg>
